<?xml version="1.0" standalone="no"?>
<!DOCTYPE svg PUBLIC "-//W3C//DTD SVG 20010904//EN"
 "http://www.w3.org/TR/2001/REC-SVG-20010904/DTD/svg10.dtd">
<svg version="1.0" xmlns="http://www.w3.org/2000/svg"
 width="300.000000pt" height="300.000000pt" viewBox="0 0 300.000000 300.000000"
 preserveAspectRatio="xMidYMid meet">
<metadata>
Created by potrace 1.10, written by Peter Selinger 2001-2011
</metadata>
<g transform="translate(0.000000,300.000000) scale(0.100000,-0.100000)"
fill="#ffffff" stroke="none">
<path d="M1275 2824 c-774 -138 -1266 -901 -1070 -1660 112 -429 439 -782 860
-927 151 -52 266 -71 435 -71 278 0 513 70 740 220 555 365 756 1090 471 1690
-71 148 -140 245 -265 370 -266 266 -581 395 -956 393 -74 0 -171 -7 -215 -15z
m463 -63 c529 -103 934 -515 1027 -1045 19 -112 19 -304 0 -423 -78 -479 -437
-886 -900 -1021 -141 -41 -187 -47 -370 -47 -162 1 -191 3 -288 28 -325 81
-593 267 -770 533 -149 224 -217 450 -217 720 0 483 268 918 702 1139 187 95
348 133 575 134 102 1 170 -4 241 -18z"/>
<path d="M1175 2461 c-49 -21 -70 -78 -50 -140 6 -21 5 -21 -204 -21 l-210 0
-20 -26 c-23 -30 -28 -90 -8 -115 27 -35 53 -39 265 -39 l209 0 12 -87 c7 -49
17 -105 22 -125 12 -45 60 -88 100 -88 l29 0 0 -154 c0 -168 -1 -166 61 -166
l29 0 0 -389 0 -389 31 -84 c38 -99 53 -119 73 -98 7 8 27 53 45 98 l31 84 0
388 0 389 43 3 42 3 3 158 3 157 28 0 c40 0 88 43 100 88 6 20 16 76 23 125
l12 87 208 0 c258 0 278 7 278 94 0 19 -9 45 -21 60 l-20 26 -210 0 -209 0 6
27 c14 53 8 84 -20 111 l-26 27 -318 2 c-174 1 -326 -2 -337 -6z m644 -65 c9
-11 3 -67 -26 -248 -32 -197 -41 -236 -60 -255 -22 -22 -28 -23 -232 -23 -204
0 -211 1 -234 23 -22 20 -28 45 -61 256 -27 175 -33 237 -25 248 17 20 621 19
638 -1z m-677 -181 l4 -35 -215 2 -216 3 -3 24 c-2 13 2 28 10 32 7 5 104 9
214 9 l202 0 4 -35z m1143 0 l0 -30 -216 -3 -215 -2 4 35 4 35 212 -2 211 -3
0 -30z m-660 -525 l0 -130 -125 0 -125 0 0 130 -1 130 126 0 125 0 0 -130z
m-85 -566 c0 -332 -2 -382 -17 -425 -10 -27 -20 -49 -23 -49 -3 0 -13 22 -23
49 -15 43 -17 93 -17 425 l0 376 40 0 40 0 0 -376z"/>
<path d="M1345 2260 c-5 -8 -8 -170 -5 -261 0 -6 10 -9 23 -7 22 3 22 6 22
138 0 117 -2 135 -17 138 -9 2 -19 -2 -23 -8z"/>
<path d="M1475 2258 c-3 -8 -4 -70 -3 -139 l3 -124 25 0 25 0 0 135 c0 132 0
135 -23 138 -12 2 -24 -3 -27 -10z"/>
<path d="M1614 2257 c-2 -7 -3 -69 -2 -138 3 -120 4 -124 26 -127 12 -2 22 1
22 7 3 89 0 253 -5 261 -9 14 -35 12 -41 -3z"/>
<path d="M1164 1065 c-6 -14 20 -64 58 -114 27 -36 23 -41 -37 -41 -47 0 -55
-3 -55 -18 0 -30 152 -227 175 -227 36 0 26 30 -34 110 l-60 80 52 5 c37 4 53
10 55 21 5 25 -110 199 -131 199 -10 0 -20 -7 -23 -15z"/>
<path d="M1788 1067 c-27 -22 -120 -178 -114 -193 4 -9 21 -14 56 -14 27 0 50
-2 50 -5 0 -2 -28 -40 -61 -84 -52 -68 -60 -83 -49 -96 7 -8 18 -15 24 -15 12
0 160 192 171 222 9 23 -12 32 -67 29 -26 -1 -48 0 -48 3 0 3 18 31 40 62 43
62 47 76 27 93 -10 8 -18 7 -29 -2z"/>
<path d="M804 575 c-4 -8 -1 -22 6 -30 10 -13 53 -15 260 -15 259 0 280 3 264
44 -5 14 -35 16 -265 16 -223 0 -260 -2 -265 -15z"/>
<path d="M1667 584 c-13 -13 -7 -42 9 -48 24 -9 427 -7 442 3 8 5 12 17 10 27
-3 18 -17 19 -229 22 -124 1 -228 -1 -232 -4z"/>
</g>
</svg>
